<mxfile host="app.diagrams.net" agent="Mozilla/5.0 (Windows NT 10.0; Win64; x64) AppleWebKit/537.36 (KHTML, like Gecko) Chrome/131.0.0.0 Safari/537.36 Edg/131.0.0.0" version="25.0.3">
  <diagram name="Page-1" id="m8-AKDyAZTO_Czc3pS7X">
    <mxGraphModel dx="1042" dy="615" grid="0" gridSize="10" guides="1" tooltips="1" connect="1" arrows="1" fold="1" page="1" pageScale="1" pageWidth="3300" pageHeight="4681" background="none" math="0" shadow="0">
      <root>
        <mxCell id="0" />
        <mxCell id="1" parent="0" />
        <mxCell id="ICN11t2LMivAURPf7j1P-29" value="" style="rounded=0;whiteSpace=wrap;html=1;fillColor=none;dashed=1;" parent="1" vertex="1">
          <mxGeometry x="351.13" y="1182" width="802.25" height="350" as="geometry" />
        </mxCell>
        <mxCell id="Uh1QGtXTKpIPVLYriaKn-49" style="edgeStyle=orthogonalEdgeStyle;rounded=0;orthogonalLoop=1;jettySize=auto;html=1;fillColor=#66B2FF;" parent="1" source="IhfRJVc3wCJX7Gg2RBDw-7" target="Uh1QGtXTKpIPVLYriaKn-46" edge="1">
          <mxGeometry relative="1" as="geometry" />
        </mxCell>
        <mxCell id="IhfRJVc3wCJX7Gg2RBDw-7" value="YC &lt;br&gt;fetch()" style="whiteSpace=wrap;html=1;aspect=fixed;fillColor=#66B2FF;" parent="1" vertex="1">
          <mxGeometry x="545" y="914" width="80" height="80" as="geometry" />
        </mxCell>
        <mxCell id="Uh1QGtXTKpIPVLYriaKn-31" style="edgeStyle=orthogonalEdgeStyle;rounded=0;orthogonalLoop=1;jettySize=auto;html=1;fillColor=#66B2FF;" parent="1" source="Uh1QGtXTKpIPVLYriaKn-32" target="kdnbXAXzeRMEIVDf3c8E-4" edge="1">
          <mxGeometry relative="1" as="geometry">
            <mxPoint x="594" y="461" as="targetPoint" />
          </mxGeometry>
        </mxCell>
        <mxCell id="Uh1QGtXTKpIPVLYriaKn-32" value="Start&lt;div&gt;POW_ID&lt;/div&gt;" style="ellipse;whiteSpace=wrap;html=1;aspect=fixed;" parent="1" vertex="1">
          <mxGeometry x="544" y="366" width="80" height="80" as="geometry" />
        </mxCell>
        <mxCell id="ICN11t2LMivAURPf7j1P-5" style="edgeStyle=orthogonalEdgeStyle;rounded=0;orthogonalLoop=1;jettySize=auto;html=1;entryX=0.5;entryY=0;entryDx=0;entryDy=0;" parent="1" target="ICN11t2LMivAURPf7j1P-1" edge="1">
          <mxGeometry relative="1" as="geometry">
            <mxPoint x="584" y="540.25" as="sourcePoint" />
          </mxGeometry>
        </mxCell>
        <mxCell id="Uh1QGtXTKpIPVLYriaKn-35" style="edgeStyle=orthogonalEdgeStyle;rounded=0;orthogonalLoop=1;jettySize=auto;html=1;exitX=0;exitY=0.5;exitDx=0;exitDy=0;fillColor=#66B2FF;entryX=1;entryY=0.5;entryDx=0;entryDy=0;" parent="1" source="Uh1QGtXTKpIPVLYriaKn-40" target="Uh1QGtXTKpIPVLYriaKn-41" edge="1">
          <mxGeometry relative="1" as="geometry">
            <mxPoint x="521" y="1050" as="sourcePoint" />
            <mxPoint x="487" y="888" as="targetPoint" />
          </mxGeometry>
        </mxCell>
        <mxCell id="Uh1QGtXTKpIPVLYriaKn-36" value="DSCH" style="edgeLabel;html=1;align=center;verticalAlign=middle;resizable=0;points=[];fillColor=#66B2FF;" parent="Uh1QGtXTKpIPVLYriaKn-35" connectable="0" vertex="1">
          <mxGeometry x="-0.2256" y="2" relative="1" as="geometry">
            <mxPoint as="offset" />
          </mxGeometry>
        </mxCell>
        <mxCell id="Uh1QGtXTKpIPVLYriaKn-37" value="" style="edgeLabel;html=1;align=center;verticalAlign=middle;resizable=0;points=[];fillColor=#66B2FF;" parent="Uh1QGtXTKpIPVLYriaKn-35" connectable="0" vertex="1">
          <mxGeometry x="-0.2616" y="2" relative="1" as="geometry">
            <mxPoint x="-7" y="-2" as="offset" />
          </mxGeometry>
        </mxCell>
        <mxCell id="Uh1QGtXTKpIPVLYriaKn-38" style="edgeStyle=orthogonalEdgeStyle;rounded=0;orthogonalLoop=1;jettySize=auto;html=1;exitX=0.5;exitY=1;exitDx=0;exitDy=0;entryX=0.5;entryY=0;entryDx=0;entryDy=0;fillColor=#66B2FF;" parent="1" source="Uh1QGtXTKpIPVLYriaKn-40" target="IhfRJVc3wCJX7Gg2RBDw-7" edge="1">
          <mxGeometry relative="1" as="geometry">
            <mxPoint x="584.5" y="799" as="targetPoint" />
          </mxGeometry>
        </mxCell>
        <mxCell id="Uh1QGtXTKpIPVLYriaKn-39" value="LOAD" style="edgeLabel;html=1;align=center;verticalAlign=middle;resizable=0;points=[];fillColor=#66B2FF;" parent="Uh1QGtXTKpIPVLYriaKn-38" connectable="0" vertex="1">
          <mxGeometry x="-0.1828" y="1" relative="1" as="geometry">
            <mxPoint as="offset" />
          </mxGeometry>
        </mxCell>
        <mxCell id="Uh1QGtXTKpIPVLYriaKn-40" value="&lt;div align=&quot;center&quot;&gt;&lt;br&gt;&lt;/div&gt;&lt;div align=&quot;center&quot;&gt;Move kind ?&lt;br&gt;&lt;/div&gt;&lt;div&gt;&lt;br&gt;&lt;/div&gt;" style="rhombus;whiteSpace=wrap;html=1;fillColor=#f5f5f5;fontColor=#333333;strokeColor=#666666;dashed=1;" parent="1" vertex="1">
          <mxGeometry x="522.25" y="807" width="125.5" height="63" as="geometry" />
        </mxCell>
        <mxCell id="Uh1QGtXTKpIPVLYriaKn-41" value="Launch Dsch Function" style="whiteSpace=wrap;html=1;aspect=fixed;fillColor=#647687;strokeColor=#314354;fontColor=#ffffff;" parent="1" vertex="1">
          <mxGeometry x="375" y="803" width="71" height="71" as="geometry" />
        </mxCell>
        <mxCell id="Uh1QGtXTKpIPVLYriaKn-44" style="edgeStyle=orthogonalEdgeStyle;rounded=0;orthogonalLoop=1;jettySize=auto;html=1;exitX=0.5;exitY=1;exitDx=0;exitDy=0;fillColor=#66B2FF;" parent="1" source="Uh1QGtXTKpIPVLYriaKn-45" target="Uh1QGtXTKpIPVLYriaKn-40" edge="1">
          <mxGeometry relative="1" as="geometry" />
        </mxCell>
        <mxCell id="Uh1QGtXTKpIPVLYriaKn-45" value="Select WI" style="whiteSpace=wrap;html=1;aspect=fixed;fillColor=#f5f5f5;fontColor=#333333;strokeColor=#666666;dashed=1;" parent="1" vertex="1">
          <mxGeometry x="546" y="688.5" width="80" height="80" as="geometry" />
        </mxCell>
        <mxCell id="Uh1QGtXTKpIPVLYriaKn-50" style="edgeStyle=orthogonalEdgeStyle;rounded=0;orthogonalLoop=1;jettySize=auto;html=1;exitX=0.5;exitY=0;exitDx=0;exitDy=0;entryX=0.5;entryY=1;entryDx=0;entryDy=0;fillColor=#66B2FF;" parent="1" source="Uh1QGtXTKpIPVLYriaKn-46" target="Uh1QGtXTKpIPVLYriaKn-48" edge="1">
          <mxGeometry relative="1" as="geometry" />
        </mxCell>
        <mxCell id="Uh1QGtXTKpIPVLYriaKn-46" value="Request ITV" style="whiteSpace=wrap;html=1;aspect=fixed;fillColor=#dae8fc;dashed=1;strokeColor=#6c8ebf;" parent="1" vertex="1">
          <mxGeometry x="720.25" y="924" width="60" height="60" as="geometry" />
        </mxCell>
        <mxCell id="b5KZZbxjdxDQz6jwetfD-4" style="edgeStyle=orthogonalEdgeStyle;rounded=0;orthogonalLoop=1;jettySize=auto;html=1;exitX=0.5;exitY=0;exitDx=0;exitDy=0;entryX=0.5;entryY=1;entryDx=0;entryDy=0;" parent="1" source="Uh1QGtXTKpIPVLYriaKn-48" target="b5KZZbxjdxDQz6jwetfD-3" edge="1">
          <mxGeometry relative="1" as="geometry" />
        </mxCell>
        <mxCell id="Uh1QGtXTKpIPVLYriaKn-48" value="ITV - get ready to fetch" style="whiteSpace=wrap;html=1;aspect=fixed;fillColor=#60a917;strokeColor=#2D7600;fontColor=#ffffff;" parent="1" vertex="1">
          <mxGeometry x="710.25" y="810" width="80" height="80" as="geometry" />
        </mxCell>
        <mxCell id="N6E2E2lD6TswPAjEMysL-11" style="edgeStyle=orthogonalEdgeStyle;rounded=0;orthogonalLoop=1;jettySize=auto;html=1;entryX=0.457;entryY=0.036;entryDx=0;entryDy=0;entryPerimeter=0;" parent="1" source="Uh1QGtXTKpIPVLYriaKn-51" target="kdnbXAXzeRMEIVDf3c8E-3" edge="1">
          <mxGeometry relative="1" as="geometry">
            <mxPoint x="924" y="615" as="targetPoint" />
          </mxGeometry>
        </mxCell>
        <mxCell id="Uh1QGtXTKpIPVLYriaKn-51" value="ITV - Carry" style="whiteSpace=wrap;html=1;aspect=fixed;fillColor=#60a917;strokeColor=#2D7600;fontColor=#ffffff;" parent="1" vertex="1">
          <mxGeometry x="884" y="494.5" width="80" height="80" as="geometry" />
        </mxCell>
        <mxCell id="N6E2E2lD6TswPAjEMysL-17" style="edgeStyle=orthogonalEdgeStyle;rounded=0;orthogonalLoop=1;jettySize=auto;html=1;entryX=0.5;entryY=0;entryDx=0;entryDy=0;" parent="1" source="ZRjod6BXRgt999rC1pGX-1" target="ZRjod6BXRgt999rC1pGX-5" edge="1">
          <mxGeometry relative="1" as="geometry" />
        </mxCell>
        <mxCell id="N6E2E2lD6TswPAjEMysL-29" value="" style="edgeStyle=orthogonalEdgeStyle;rounded=0;orthogonalLoop=1;jettySize=auto;html=1;" parent="1" source="ZRjod6BXRgt999rC1pGX-1" target="ZRjod6BXRgt999rC1pGX-7" edge="1">
          <mxGeometry relative="1" as="geometry" />
        </mxCell>
        <mxCell id="ZRjod6BXRgt999rC1pGX-1" value="QC - get ready to fetch from ITV" style="whiteSpace=wrap;html=1;aspect=fixed;fillColor=#6a00ff;fontColor=#ffffff;strokeColor=#3700CC;" parent="1" vertex="1">
          <mxGeometry x="884" y="815.5" width="80" height="80" as="geometry" />
        </mxCell>
        <mxCell id="N6E2E2lD6TswPAjEMysL-19" style="edgeStyle=orthogonalEdgeStyle;rounded=0;orthogonalLoop=1;jettySize=auto;html=1;" parent="1" source="ZRjod6BXRgt999rC1pGX-5" target="N6E2E2lD6TswPAjEMysL-12" edge="1">
          <mxGeometry relative="1" as="geometry" />
        </mxCell>
        <mxCell id="ICN11t2LMivAURPf7j1P-9" value="&lt;font color=&quot;#ffb570&quot;&gt;ITV Idle&lt;/font&gt;" style="edgeLabel;html=1;align=center;verticalAlign=middle;resizable=0;points=[];" parent="N6E2E2lD6TswPAjEMysL-19" connectable="0" vertex="1">
          <mxGeometry x="-0.4348" y="-1" relative="1" as="geometry">
            <mxPoint as="offset" />
          </mxGeometry>
        </mxCell>
        <mxCell id="ZRjod6BXRgt999rC1pGX-5" value="ITV - get release from QC" style="whiteSpace=wrap;html=1;aspect=fixed;fillColor=#60a917;fontColor=#ffffff;strokeColor=#2D7600;" parent="1" vertex="1">
          <mxGeometry x="885" y="929" width="78" height="78" as="geometry" />
        </mxCell>
        <mxCell id="N6E2E2lD6TswPAjEMysL-31" value="" style="edgeStyle=orthogonalEdgeStyle;rounded=0;orthogonalLoop=1;jettySize=auto;html=1;entryX=0.5;entryY=1;entryDx=0;entryDy=0;" parent="1" source="ZRjod6BXRgt999rC1pGX-7" target="kdnbXAXzeRMEIVDf3c8E-10" edge="1">
          <mxGeometry relative="1" as="geometry">
            <mxPoint x="1079" y="775" as="targetPoint" />
          </mxGeometry>
        </mxCell>
        <mxCell id="ICN11t2LMivAURPf7j1P-10" value="&lt;font color=&quot;#ffb570&quot;&gt;QC Idle&lt;/font&gt;" style="edgeLabel;html=1;align=center;verticalAlign=middle;resizable=0;points=[];" parent="N6E2E2lD6TswPAjEMysL-31" connectable="0" vertex="1">
          <mxGeometry x="-0.0864" y="-1" relative="1" as="geometry">
            <mxPoint y="1" as="offset" />
          </mxGeometry>
        </mxCell>
        <mxCell id="ZRjod6BXRgt999rC1pGX-7" value="QC&lt;div&gt;&amp;nbsp; put()&amp;nbsp;&lt;/div&gt;" style="whiteSpace=wrap;html=1;aspect=fixed;fillColor=#6a00ff;fontColor=#ffffff;strokeColor=#3700CC;" parent="1" vertex="1">
          <mxGeometry x="1039" y="815.5" width="80" height="80" as="geometry" />
        </mxCell>
        <mxCell id="ZRjod6BXRgt999rC1pGX-20" value="&lt;b&gt;&lt;font style=&quot;font-size: 14px;&quot;&gt;Diagram title:&lt;/font&gt;&lt;/b&gt; &lt;font style=&quot;font-size: 14px;&quot;&gt;DSCH process&lt;/font&gt;&lt;div&gt;&lt;span style=&quot;font-size: 14px;&quot;&gt;&lt;br&gt;&lt;/span&gt;&lt;div&gt;&lt;b&gt;&lt;font style=&quot;font-size: 14px;&quot;&gt;Description:&lt;/font&gt;&lt;/b&gt;&amp;nbsp;&lt;font style=&quot;font-size: 14px;&quot;&gt;&lt;span style=&quot;background-color: initial;&quot;&gt;process of&amp;nbsp;&lt;/span&gt;&lt;span style=&quot;background-color: initial;&quot;&gt;unload container from&amp;nbsp;&lt;/span&gt;&lt;span style=&quot;background-color: initial;&quot;&gt;vessel&lt;/span&gt;&lt;span style=&quot;background-color: initial;&quot;&gt;&amp;nbsp;to yard&amp;nbsp;&lt;/span&gt;&lt;/font&gt;&lt;/div&gt;&lt;/div&gt;" style="rounded=1;whiteSpace=wrap;html=1;fillColor=none;align=left;" parent="1" vertex="1">
          <mxGeometry x="260" y="244" width="219" height="100" as="geometry" />
        </mxCell>
        <mxCell id="b5KZZbxjdxDQz6jwetfD-8" style="edgeStyle=orthogonalEdgeStyle;rounded=0;orthogonalLoop=1;jettySize=auto;html=1;exitX=0;exitY=0.5;exitDx=0;exitDy=0;entryX=1;entryY=0.5;entryDx=0;entryDy=0;" parent="1" source="b5KZZbxjdxDQz6jwetfD-1" target="Uh1QGtXTKpIPVLYriaKn-45" edge="1">
          <mxGeometry relative="1" as="geometry" />
        </mxCell>
        <mxCell id="b5KZZbxjdxDQz6jwetfD-9" value="Yes" style="edgeLabel;html=1;align=center;verticalAlign=middle;resizable=0;points=[];" parent="b5KZZbxjdxDQz6jwetfD-8" vertex="1" connectable="0">
          <mxGeometry x="-0.2055" y="-1" relative="1" as="geometry">
            <mxPoint x="1" y="26" as="offset" />
          </mxGeometry>
        </mxCell>
        <mxCell id="N6E2E2lD6TswPAjEMysL-8" style="edgeStyle=orthogonalEdgeStyle;rounded=0;orthogonalLoop=1;jettySize=auto;html=1;entryX=0.5;entryY=1;entryDx=0;entryDy=0;" parent="1" source="b5KZZbxjdxDQz6jwetfD-1" target="kdnbXAXzeRMEIVDf3c8E-9" edge="1">
          <mxGeometry relative="1" as="geometry">
            <mxPoint x="750.25" y="540.25" as="targetPoint" />
          </mxGeometry>
        </mxCell>
        <mxCell id="N6E2E2lD6TswPAjEMysL-9" value="No" style="edgeLabel;html=1;align=center;verticalAlign=middle;resizable=0;points=[];" parent="N6E2E2lD6TswPAjEMysL-8" vertex="1" connectable="0">
          <mxGeometry x="-0.0166" y="1" relative="1" as="geometry">
            <mxPoint as="offset" />
          </mxGeometry>
        </mxCell>
        <mxCell id="b5KZZbxjdxDQz6jwetfD-1" value="Still WI in Pow ?" style="rhombus;whiteSpace=wrap;html=1;fillColor=#f5f5f5;fontColor=#333333;strokeColor=#666666;dashed=1;" parent="1" vertex="1">
          <mxGeometry x="697" y="573.5" width="106.5" height="93" as="geometry" />
        </mxCell>
        <mxCell id="b5KZZbxjdxDQz6jwetfD-5" style="edgeStyle=orthogonalEdgeStyle;rounded=0;orthogonalLoop=1;jettySize=auto;html=1;entryX=0.5;entryY=1;entryDx=0;entryDy=0;" parent="1" source="b5KZZbxjdxDQz6jwetfD-3" target="b5KZZbxjdxDQz6jwetfD-1" edge="1">
          <mxGeometry relative="1" as="geometry" />
        </mxCell>
        <mxCell id="ICN11t2LMivAURPf7j1P-8" value="&lt;font color=&quot;#ffb570&quot;&gt;YC Idle&lt;/font&gt;" style="edgeLabel;html=1;align=center;verticalAlign=middle;resizable=0;points=[];" parent="b5KZZbxjdxDQz6jwetfD-5" connectable="0" vertex="1">
          <mxGeometry x="-0.66" relative="1" as="geometry">
            <mxPoint y="-3" as="offset" />
          </mxGeometry>
        </mxCell>
        <mxCell id="b5KZZbxjdxDQz6jwetfD-10" style="edgeStyle=orthogonalEdgeStyle;rounded=0;orthogonalLoop=1;jettySize=auto;html=1;entryX=0;entryY=0.5;entryDx=0;entryDy=0;" parent="1" source="b5KZZbxjdxDQz6jwetfD-3" target="Uh1QGtXTKpIPVLYriaKn-51" edge="1">
          <mxGeometry relative="1" as="geometry">
            <mxPoint x="824" y="728.5" as="targetPoint" />
          </mxGeometry>
        </mxCell>
        <mxCell id="b5KZZbxjdxDQz6jwetfD-3" value="YC &lt;br&gt;get ready to put to ITV" style="whiteSpace=wrap;html=1;aspect=fixed;fillColor=#66B2FF;" parent="1" vertex="1">
          <mxGeometry x="710.25" y="696.5" width="80" height="80" as="geometry" />
        </mxCell>
        <mxCell id="N6E2E2lD6TswPAjEMysL-1" style="edgeStyle=orthogonalEdgeStyle;rounded=0;orthogonalLoop=1;jettySize=auto;html=1;entryX=0.5;entryY=1;entryDx=0;entryDy=0;" parent="1" source="b5KZZbxjdxDQz6jwetfD-13" target="Uh1QGtXTKpIPVLYriaKn-46" edge="1">
          <mxGeometry relative="1" as="geometry" />
        </mxCell>
        <mxCell id="b5KZZbxjdxDQz6jwetfD-13" value="ITV Pool IDLE&amp;nbsp; &amp;nbsp;" style="sketch=0;outlineConnect=0;strokeColor=#6c8ebf;fillColor=#dae8fc;dashed=0;verticalLabelPosition=middle;verticalAlign=middle;align=right;html=1;fontSize=12;fontStyle=0;aspect=fixed;shape=mxgraph.aws4.resourceIcon;resIcon=mxgraph.aws4.queue;labelPosition=left;" parent="1" vertex="1">
          <mxGeometry x="720.25" y="1041" width="60" height="60" as="geometry" />
        </mxCell>
        <mxCell id="N6E2E2lD6TswPAjEMysL-5" style="rounded=0;orthogonalLoop=1;jettySize=auto;html=1;entryX=1;entryY=0.5;entryDx=0;entryDy=0;edgeStyle=orthogonalEdgeStyle;endArrow=none;endFill=0;dashed=1;" parent="1" source="kdnbXAXzeRMEIVDf3c8E-8" target="kdnbXAXzeRMEIVDf3c8E-4" edge="1">
          <mxGeometry relative="1" as="geometry">
            <mxPoint x="720.25" y="406" as="sourcePoint" />
            <mxPoint x="614" y="510.25" as="targetPoint" />
          </mxGeometry>
        </mxCell>
        <mxCell id="N6E2E2lD6TswPAjEMysL-7" style="edgeStyle=orthogonalEdgeStyle;rounded=0;orthogonalLoop=1;jettySize=auto;html=1;" parent="1" target="kdnbXAXzeRMEIVDf3c8E-8" edge="1">
          <mxGeometry relative="1" as="geometry">
            <mxPoint x="750.2758620689656" y="480.25" as="sourcePoint" />
            <mxPoint x="750.25" y="436" as="targetPoint" />
          </mxGeometry>
        </mxCell>
        <mxCell id="N6E2E2lD6TswPAjEMysL-14" style="edgeStyle=orthogonalEdgeStyle;rounded=0;orthogonalLoop=1;jettySize=auto;html=1;exitX=0.457;exitY=0.997;exitDx=0;exitDy=0;entryX=0.5;entryY=0;entryDx=0;entryDy=0;exitPerimeter=0;" parent="1" source="kdnbXAXzeRMEIVDf3c8E-3" target="N6E2E2lD6TswPAjEMysL-13" edge="1">
          <mxGeometry relative="1" as="geometry">
            <mxPoint x="924" y="675" as="sourcePoint" />
          </mxGeometry>
        </mxCell>
        <mxCell id="N6E2E2lD6TswPAjEMysL-20" style="edgeStyle=orthogonalEdgeStyle;rounded=0;orthogonalLoop=1;jettySize=auto;html=1;" parent="1" source="N6E2E2lD6TswPAjEMysL-12" target="b5KZZbxjdxDQz6jwetfD-13" edge="1">
          <mxGeometry relative="1" as="geometry" />
        </mxCell>
        <mxCell id="N6E2E2lD6TswPAjEMysL-12" value="Release ITV" style="whiteSpace=wrap;html=1;aspect=fixed;fillColor=#dae8fc;dashed=1;strokeColor=#6c8ebf;" parent="1" vertex="1">
          <mxGeometry x="894" y="1041" width="60" height="60" as="geometry" />
        </mxCell>
        <mxCell id="N6E2E2lD6TswPAjEMysL-16" style="edgeStyle=orthogonalEdgeStyle;rounded=0;orthogonalLoop=1;jettySize=auto;html=1;" parent="1" source="N6E2E2lD6TswPAjEMysL-13" edge="1">
          <mxGeometry relative="1" as="geometry">
            <mxPoint x="924" y="812" as="targetPoint" />
          </mxGeometry>
        </mxCell>
        <mxCell id="N6E2E2lD6TswPAjEMysL-13" value="ITV - get ready to put" style="whiteSpace=wrap;html=1;aspect=fixed;fillColor=#60a917;strokeColor=#2D7600;fontColor=#ffffff;" parent="1" vertex="1">
          <mxGeometry x="884" y="705" width="80" height="80" as="geometry" />
        </mxCell>
        <mxCell id="N6E2E2lD6TswPAjEMysL-28" style="edgeStyle=orthogonalEdgeStyle;rounded=0;orthogonalLoop=1;jettySize=auto;html=1;" parent="1" edge="1">
          <mxGeometry relative="1" as="geometry">
            <mxPoint x="1049" y="644.5" as="sourcePoint" />
            <mxPoint x="957" y="642" as="targetPoint" />
          </mxGeometry>
        </mxCell>
        <mxCell id="N6E2E2lD6TswPAjEMysL-32" value="" style="edgeStyle=orthogonalEdgeStyle;rounded=0;orthogonalLoop=1;jettySize=auto;html=1;exitX=0.5;exitY=0;exitDx=0;exitDy=0;" parent="1" source="kdnbXAXzeRMEIVDf3c8E-10" target="kdnbXAXzeRMEIVDf3c8E-6" edge="1">
          <mxGeometry relative="1" as="geometry">
            <mxPoint x="1079" y="715" as="sourcePoint" />
            <mxPoint x="1081" y="672" as="targetPoint" />
          </mxGeometry>
        </mxCell>
        <mxCell id="N6E2E2lD6TswPAjEMysL-33" value="&lt;div&gt;&lt;b&gt;&amp;nbsp;Legend Abbreviation:&amp;nbsp;&lt;/b&gt;&lt;/div&gt;&lt;div&gt;&lt;b&gt;&lt;span style=&quot;white-space: pre;&quot;&gt;&#x9;&lt;/span&gt;POW: &lt;/b&gt;Point Of Work&lt;/div&gt;&lt;b&gt;&lt;span style=&quot;white-space: pre;&quot;&gt;&#x9;&lt;/span&gt;QC&lt;/b&gt;: Quay Crane&lt;div&gt;&lt;b&gt;&lt;span style=&quot;white-space: pre;&quot;&gt;&#x9;&lt;/span&gt;ITV&lt;/b&gt;: Internal Transport Vehicle&lt;/div&gt;&lt;div&gt;&lt;b&gt;&lt;span style=&quot;white-space: pre;&quot;&gt;&#x9;&lt;/span&gt;YC&lt;/b&gt;: Yard Crane&lt;/div&gt;&lt;div&gt;&lt;b&gt;&lt;span style=&quot;white-space: pre;&quot;&gt;&#x9;&lt;/span&gt;WI&lt;/b&gt;: Work Instruction&lt;/div&gt;" style="text;html=1;align=left;verticalAlign=middle;whiteSpace=wrap;rounded=1;strokeColor=default;" parent="1" vertex="1">
          <mxGeometry x="1094" y="243" width="220" height="101" as="geometry" />
        </mxCell>
        <mxCell id="N6E2E2lD6TswPAjEMysL-70" value="" style="group" parent="1" connectable="0" vertex="1">
          <mxGeometry x="497" y="243" width="592" height="101" as="geometry" />
        </mxCell>
        <mxCell id="N6E2E2lD6TswPAjEMysL-41" value="" style="rounded=1;whiteSpace=wrap;html=1;" parent="N6E2E2lD6TswPAjEMysL-70" vertex="1">
          <mxGeometry width="575" height="101" as="geometry" />
        </mxCell>
        <mxCell id="N6E2E2lD6TswPAjEMysL-42" value="" style="whiteSpace=wrap;html=1;aspect=fixed;fillColor=#66B2FF;" parent="N6E2E2lD6TswPAjEMysL-70" vertex="1">
          <mxGeometry x="12" y="6.936813186813197" width="22" height="22" as="geometry" />
        </mxCell>
        <mxCell id="N6E2E2lD6TswPAjEMysL-43" value="" style="whiteSpace=wrap;html=1;aspect=fixed;fillColor=#60a917;strokeColor=#2D7600;fontColor=#ffffff;" parent="N6E2E2lD6TswPAjEMysL-70" vertex="1">
          <mxGeometry x="12" y="35.79395604395603" width="22" height="22" as="geometry" />
        </mxCell>
        <mxCell id="N6E2E2lD6TswPAjEMysL-44" value="" style="whiteSpace=wrap;html=1;aspect=fixed;fillColor=#6a00ff;fontColor=#ffffff;strokeColor=#3700CC;" parent="N6E2E2lD6TswPAjEMysL-70" vertex="1">
          <mxGeometry x="12" y="65.76098901098902" width="22" height="22" as="geometry" />
        </mxCell>
        <mxCell id="N6E2E2lD6TswPAjEMysL-45" value="QC process&amp;nbsp;" style="text;html=1;align=left;verticalAlign=middle;whiteSpace=wrap;rounded=0;strokeColor=none;" parent="N6E2E2lD6TswPAjEMysL-70" vertex="1">
          <mxGeometry x="38" y="6.936813186813197" width="172" height="24.417582417582416" as="geometry" />
        </mxCell>
        <mxCell id="N6E2E2lD6TswPAjEMysL-46" value="ITV process&amp;nbsp;" style="text;html=1;align=left;verticalAlign=middle;whiteSpace=wrap;rounded=0;strokeColor=none;" parent="N6E2E2lD6TswPAjEMysL-70" vertex="1">
          <mxGeometry x="38" y="35.79395604395603" width="169" height="24.417582417582416" as="geometry" />
        </mxCell>
        <mxCell id="N6E2E2lD6TswPAjEMysL-47" value="YC process&amp;nbsp;" style="text;html=1;align=left;verticalAlign=middle;whiteSpace=wrap;rounded=0;strokeColor=none;" parent="N6E2E2lD6TswPAjEMysL-70" vertex="1">
          <mxGeometry x="38" y="65.76098901098902" width="169" height="24.417582417582416" as="geometry" />
        </mxCell>
        <mxCell id="N6E2E2lD6TswPAjEMysL-48" value="&lt;span style=&quot;text-align: left;&quot;&gt;&amp;nbsp;YC Resource&lt;/span&gt;&lt;span style=&quot;text-align: left; background-color: initial;&quot;&gt;&amp;nbsp;pool&lt;/span&gt;" style="sketch=0;outlineConnect=0;dashed=0;verticalLabelPosition=middle;verticalAlign=middle;align=left;html=1;fontSize=12;fontStyle=0;aspect=fixed;shape=mxgraph.aws4.resourceIcon;resIcon=mxgraph.aws4.queue;labelPosition=right;fillColor=#E1D5E7;" parent="N6E2E2lD6TswPAjEMysL-70" vertex="1">
          <mxGeometry x="120" y="7.769230769230774" width="22" height="22" as="geometry" />
        </mxCell>
        <mxCell id="N6E2E2lD6TswPAjEMysL-50" value="" style="whiteSpace=wrap;html=1;aspect=fixed;fillColor=#dae8fc;dashed=1;strokeColor=#6c8ebf;" parent="N6E2E2lD6TswPAjEMysL-70" vertex="1">
          <mxGeometry x="258" y="36.34890109890108" width="22" height="22" as="geometry" />
        </mxCell>
        <mxCell id="N6E2E2lD6TswPAjEMysL-52" value="&lt;span style=&quot;text-align: left;&quot;&gt;&amp;nbsp;ITV Resource&lt;/span&gt;&lt;span style=&quot;text-align: left; background-color: initial;&quot;&gt;&amp;nbsp;pool&lt;/span&gt;" style="sketch=0;outlineConnect=0;dashed=0;verticalLabelPosition=middle;verticalAlign=middle;align=left;html=1;fontSize=12;fontStyle=0;aspect=fixed;shape=mxgraph.aws4.resourceIcon;resIcon=mxgraph.aws4.queue;labelPosition=right;fillColor=#DAE8FC;" parent="N6E2E2lD6TswPAjEMysL-70" vertex="1">
          <mxGeometry x="120" y="35.79395604395603" width="22" height="22" as="geometry" />
        </mxCell>
        <mxCell id="N6E2E2lD6TswPAjEMysL-53" value="&lt;span style=&quot;text-align: left;&quot;&gt;&amp;nbsp;QC Resource&lt;/span&gt;&lt;span style=&quot;text-align: left; background-color: initial;&quot;&gt;&amp;nbsp;pool&lt;/span&gt;" style="sketch=0;outlineConnect=0;dashed=0;verticalLabelPosition=middle;verticalAlign=middle;align=left;html=1;fontSize=12;fontStyle=0;aspect=fixed;shape=mxgraph.aws4.resourceIcon;resIcon=mxgraph.aws4.queue;labelPosition=right;fillColor=#FFE6CC;" parent="N6E2E2lD6TswPAjEMysL-70" vertex="1">
          <mxGeometry x="120" y="65.76098901098902" width="22" height="22" as="geometry" />
        </mxCell>
        <mxCell id="N6E2E2lD6TswPAjEMysL-56" value="" style="whiteSpace=wrap;html=1;aspect=fixed;fillColor=#e1d5e7;dashed=1;strokeColor=#9673a6;labelPosition=right;verticalLabelPosition=middle;align=left;verticalAlign=middle;" parent="N6E2E2lD6TswPAjEMysL-70" vertex="1">
          <mxGeometry x="258" y="6.936813186813197" width="22" height="22" as="geometry" />
        </mxCell>
        <mxCell id="N6E2E2lD6TswPAjEMysL-57" value="" style="whiteSpace=wrap;html=1;aspect=fixed;fillColor=#fff2cc;strokeColor=#d6b656;dashed=1;" parent="N6E2E2lD6TswPAjEMysL-70" vertex="1">
          <mxGeometry x="258" y="65.76098901098902" width="22" height="22" as="geometry" />
        </mxCell>
        <mxCell id="N6E2E2lD6TswPAjEMysL-58" value="&amp;nbsp;YC request &amp;amp; release" style="text;html=1;align=left;verticalAlign=middle;whiteSpace=wrap;rounded=0;strokeColor=none;" parent="N6E2E2lD6TswPAjEMysL-70" vertex="1">
          <mxGeometry x="280" y="6.936813186813197" width="147" height="24.417582417582416" as="geometry" />
        </mxCell>
        <mxCell id="N6E2E2lD6TswPAjEMysL-59" value="&amp;nbsp;ITV request &amp;amp; release" style="text;html=1;align=left;verticalAlign=middle;whiteSpace=wrap;rounded=0;strokeColor=none;" parent="N6E2E2lD6TswPAjEMysL-70" vertex="1">
          <mxGeometry x="280" y="35.79395604395603" width="146" height="24.417582417582416" as="geometry" />
        </mxCell>
        <mxCell id="N6E2E2lD6TswPAjEMysL-60" value="&amp;nbsp;QC request &amp;amp; release" style="text;html=1;align=left;verticalAlign=middle;whiteSpace=wrap;rounded=0;strokeColor=none;" parent="N6E2E2lD6TswPAjEMysL-70" vertex="1">
          <mxGeometry x="280" y="65.76098901098902" width="139" height="24.417582417582416" as="geometry" />
        </mxCell>
        <mxCell id="N6E2E2lD6TswPAjEMysL-63" value="" style="rhombus;whiteSpace=wrap;html=1;fillColor=#f5f5f5;fontColor=#333333;strokeColor=#666666;dashed=1;" parent="N6E2E2lD6TswPAjEMysL-70" vertex="1">
          <mxGeometry x="414" y="6.139999999999986" width="24" height="24" as="geometry" />
        </mxCell>
        <mxCell id="N6E2E2lD6TswPAjEMysL-64" value="Test Condition" style="text;html=1;align=left;verticalAlign=middle;whiteSpace=wrap;rounded=0;strokeColor=none;" parent="N6E2E2lD6TswPAjEMysL-70" vertex="1">
          <mxGeometry x="445" y="5.72681318681316" width="147" height="24.417582417582416" as="geometry" />
        </mxCell>
        <mxCell id="N6E2E2lD6TswPAjEMysL-65" value="" style="whiteSpace=wrap;html=1;aspect=fixed;fillColor=#f5f5f5;fontColor=#333333;strokeColor=#666666;dashed=1;" parent="N6E2E2lD6TswPAjEMysL-70" vertex="1">
          <mxGeometry x="418" y="34.589999999999975" width="22" height="22" as="geometry" />
        </mxCell>
        <mxCell id="N6E2E2lD6TswPAjEMysL-67" value="&lt;span style=&quot;color: rgb(51, 51, 51); text-align: center;&quot;&gt;Logical&amp;nbsp;&lt;/span&gt;&lt;span style=&quot;color: rgb(51, 51, 51); text-align: center;&quot;&gt;Process&amp;nbsp;&lt;/span&gt;" style="text;html=1;align=left;verticalAlign=middle;whiteSpace=wrap;rounded=0;strokeColor=none;" parent="N6E2E2lD6TswPAjEMysL-70" vertex="1">
          <mxGeometry x="445" y="33.376813186813195" width="147" height="24.417582417582416" as="geometry" />
        </mxCell>
        <mxCell id="N6E2E2lD6TswPAjEMysL-68" value="" style="whiteSpace=wrap;html=1;aspect=fixed;fillColor=#647687;strokeColor=#314354;fontColor=#ffffff;" parent="N6E2E2lD6TswPAjEMysL-70" vertex="1">
          <mxGeometry x="418" y="66.97000000000003" width="22" height="22" as="geometry" />
        </mxCell>
        <mxCell id="N6E2E2lD6TswPAjEMysL-69" value="&lt;div style=&quot;text-align: center;&quot;&gt;&lt;span style=&quot;background-color: initial;&quot;&gt;&lt;font color=&quot;#333333&quot;&gt;Another Flow Diagram&lt;/font&gt;&lt;/span&gt;&lt;/div&gt;" style="text;html=1;align=left;verticalAlign=middle;whiteSpace=wrap;rounded=0;strokeColor=none;" parent="N6E2E2lD6TswPAjEMysL-70" vertex="1">
          <mxGeometry x="445" y="64.5568131868132" width="147" height="24.417582417582416" as="geometry" />
        </mxCell>
        <mxCell id="ICN11t2LMivAURPf7j1P-2" style="edgeStyle=orthogonalEdgeStyle;rounded=0;orthogonalLoop=1;jettySize=auto;html=1;" parent="1" source="ICN11t2LMivAURPf7j1P-1" edge="1">
          <mxGeometry relative="1" as="geometry">
            <mxPoint x="584" y="686" as="targetPoint" />
          </mxGeometry>
        </mxCell>
        <mxCell id="ICN11t2LMivAURPf7j1P-3" value="Yes" style="edgeLabel;html=1;align=center;verticalAlign=middle;resizable=0;points=[];" parent="ICN11t2LMivAURPf7j1P-2" connectable="0" vertex="1">
          <mxGeometry x="0.4958" y="-1" relative="1" as="geometry">
            <mxPoint y="-15" as="offset" />
          </mxGeometry>
        </mxCell>
        <mxCell id="ICN11t2LMivAURPf7j1P-6" style="edgeStyle=orthogonalEdgeStyle;rounded=0;orthogonalLoop=1;jettySize=auto;html=1;startArrow=classic;startFill=1;endArrow=none;endFill=0;" parent="1" source="ICN11t2LMivAURPf7j1P-1" edge="1">
          <mxGeometry relative="1" as="geometry">
            <mxPoint x="532" y="616" as="targetPoint" />
            <Array as="points">
              <mxPoint x="584" y="569" />
              <mxPoint x="511" y="569" />
              <mxPoint x="511" y="616" />
            </Array>
          </mxGeometry>
        </mxCell>
        <mxCell id="ICN11t2LMivAURPf7j1P-7" value="Wait" style="edgeLabel;html=1;align=center;verticalAlign=middle;resizable=0;points=[];" parent="ICN11t2LMivAURPf7j1P-6" connectable="0" vertex="1">
          <mxGeometry x="0.1988" relative="1" as="geometry">
            <mxPoint x="-1" y="14" as="offset" />
          </mxGeometry>
        </mxCell>
        <mxCell id="ICN11t2LMivAURPf7j1P-1" value="&lt;div align=&quot;center&quot;&gt;&lt;br&gt;&lt;/div&gt;&lt;div align=&quot;center&quot;&gt;start work ?&lt;br&gt;&lt;/div&gt;&lt;div&gt;&lt;br&gt;&lt;/div&gt;" style="rhombus;whiteSpace=wrap;html=1;fillColor=#f5f5f5;fontColor=#333333;strokeColor=#666666;dashed=1;" parent="1" vertex="1">
          <mxGeometry x="533.5" y="589" width="101" height="50" as="geometry" />
        </mxCell>
        <mxCell id="ICN11t2LMivAURPf7j1P-12" value="&lt;b&gt;QC processes&lt;/b&gt;" style="text;html=1;align=center;verticalAlign=middle;whiteSpace=wrap;rounded=0;" parent="1" vertex="1">
          <mxGeometry x="347.13" y="1271" width="140" height="30" as="geometry" />
        </mxCell>
        <mxCell id="ICN11t2LMivAURPf7j1P-13" value="QC -&amp;nbsp;&lt;br&gt;fetch()" style="whiteSpace=wrap;html=1;aspect=fixed;fillColor=#66B2FF;" parent="1" vertex="1">
          <mxGeometry x="503.13" y="1246" width="80" height="80" as="geometry" />
        </mxCell>
        <mxCell id="ICN11t2LMivAURPf7j1P-14" value="QC -&amp;nbsp;&lt;br&gt;put()" style="whiteSpace=wrap;html=1;aspect=fixed;fillColor=#66B2FF;" parent="1" vertex="1">
          <mxGeometry x="590.63" y="1246" width="80" height="80" as="geometry" />
        </mxCell>
        <mxCell id="ICN11t2LMivAURPf7j1P-15" value="QC -&amp;nbsp;&lt;br&gt;get ready to put to ITV()" style="whiteSpace=wrap;html=1;aspect=fixed;fillColor=#66B2FF;" parent="1" vertex="1">
          <mxGeometry x="679.13" y="1246" width="80" height="80" as="geometry" />
        </mxCell>
        <mxCell id="ICN11t2LMivAURPf7j1P-16" value="QC -&amp;nbsp;&lt;br&gt;get ready to fetch from ITV()" style="whiteSpace=wrap;html=1;aspect=fixed;fillColor=#66B2FF;" parent="1" vertex="1">
          <mxGeometry x="767.38" y="1246" width="80" height="80" as="geometry" />
        </mxCell>
        <mxCell id="ICN11t2LMivAURPf7j1P-17" value="&lt;b&gt;ITV processes&lt;/b&gt;" style="text;html=1;align=center;verticalAlign=middle;whiteSpace=wrap;rounded=0;" parent="1" vertex="1">
          <mxGeometry x="347.13" y="1368" width="140" height="30" as="geometry" />
        </mxCell>
        <mxCell id="ICN11t2LMivAURPf7j1P-18" value="ITV - Carry()" style="whiteSpace=wrap;html=1;aspect=fixed;fillColor=#60a917;strokeColor=#2D7600;fontColor=#ffffff;" parent="1" vertex="1">
          <mxGeometry x="503.13" y="1343" width="80" height="80" as="geometry" />
        </mxCell>
        <mxCell id="ICN11t2LMivAURPf7j1P-20" value="ITV - get ready to fetch()" style="whiteSpace=wrap;html=1;aspect=fixed;fillColor=#60a917;strokeColor=#2D7600;fontColor=#ffffff;" parent="1" vertex="1">
          <mxGeometry x="590.63" y="1343" width="80" height="80" as="geometry" />
        </mxCell>
        <mxCell id="ICN11t2LMivAURPf7j1P-21" value="ITV - get ready to put()" style="whiteSpace=wrap;html=1;aspect=fixed;fillColor=#60a917;strokeColor=#2D7600;fontColor=#ffffff;" parent="1" vertex="1">
          <mxGeometry x="679.13" y="1343" width="80" height="80" as="geometry" />
        </mxCell>
        <mxCell id="ICN11t2LMivAURPf7j1P-22" value="ITV - get release from YC()" style="whiteSpace=wrap;html=1;aspect=fixed;fillColor=#60a917;fontColor=#ffffff;strokeColor=#2D7600;" parent="1" vertex="1">
          <mxGeometry x="767.38" y="1345" width="78" height="78" as="geometry" />
        </mxCell>
        <mxCell id="ICN11t2LMivAURPf7j1P-23" value="ITV - get release from QC()" style="whiteSpace=wrap;html=1;aspect=fixed;fillColor=#60a917;fontColor=#ffffff;strokeColor=#2D7600;" parent="1" vertex="1">
          <mxGeometry x="853.13" y="1345" width="78" height="78" as="geometry" />
        </mxCell>
        <mxCell id="ICN11t2LMivAURPf7j1P-24" value="&lt;b&gt;YC processes&lt;/b&gt;" style="text;html=1;align=center;verticalAlign=middle;whiteSpace=wrap;rounded=0;" parent="1" vertex="1">
          <mxGeometry x="347.13" y="1460" width="140" height="30" as="geometry" />
        </mxCell>
        <mxCell id="ICN11t2LMivAURPf7j1P-25" value="YC - get ready to fetch from ITV()" style="whiteSpace=wrap;html=1;aspect=fixed;fillColor=#6a00ff;fontColor=#ffffff;strokeColor=#3700CC;" parent="1" vertex="1">
          <mxGeometry x="679.13" y="1440" width="80" height="80" as="geometry" />
        </mxCell>
        <mxCell id="ICN11t2LMivAURPf7j1P-26" value="&lt;span style=&quot;font-weight: normal;&quot;&gt;YC&lt;/span&gt;&lt;div&gt;&amp;nbsp; &lt;span style=&quot;font-weight: normal;&quot;&gt;put()&lt;/span&gt;&amp;nbsp;&lt;/div&gt;" style="whiteSpace=wrap;html=1;aspect=fixed;fillColor=#6a00ff;fontColor=#ffffff;strokeColor=#3700CC;fontStyle=1" parent="1" vertex="1">
          <mxGeometry x="503.13" y="1440" width="80" height="80" as="geometry" />
        </mxCell>
        <mxCell id="ICN11t2LMivAURPf7j1P-27" value="YC&lt;div&gt;&amp;nbsp; fetch()&amp;nbsp;&lt;/div&gt;" style="whiteSpace=wrap;html=1;aspect=fixed;fillColor=#6a00ff;fontColor=#ffffff;strokeColor=#3700CC;" parent="1" vertex="1">
          <mxGeometry x="591.13" y="1440" width="80" height="80" as="geometry" />
        </mxCell>
        <mxCell id="ICN11t2LMivAURPf7j1P-28" value="YC - get ready to put to ITV()" style="whiteSpace=wrap;html=1;aspect=fixed;fillColor=#6a00ff;fontColor=#ffffff;strokeColor=#3700CC;" parent="1" vertex="1">
          <mxGeometry x="767.38" y="1440" width="80" height="80" as="geometry" />
        </mxCell>
        <mxCell id="ICN11t2LMivAURPf7j1P-30" value="&lt;b&gt;&lt;font style=&quot;font-size: 14px;&quot;&gt;Main Processes&lt;/font&gt;&lt;/b&gt;" style="text;html=1;align=center;verticalAlign=middle;whiteSpace=wrap;rounded=0;" parent="1" vertex="1">
          <mxGeometry x="545.01" y="1191" width="221.25" height="30" as="geometry" />
        </mxCell>
        <mxCell id="ICN11t2LMivAURPf7j1P-31" value="&lt;h1 style=&quot;margin-top: 0px;&quot;&gt;Note:&amp;nbsp;&lt;/h1&gt;&lt;p&gt;&lt;font color=&quot;#ff3333&quot;&gt;Ce n&#39;est pas une legend. ça c&#39;est juste pour vous, pour vous rappeler les processus principaux. il faut pas le copier sur les autres schémas ! .&amp;nbsp;&lt;/font&gt;&lt;/p&gt;" style="text;html=1;whiteSpace=wrap;overflow=hidden;rounded=0;" parent="1" vertex="1">
          <mxGeometry x="952.38" y="1303" width="180" height="120" as="geometry" />
        </mxCell>
        <mxCell id="kdnbXAXzeRMEIVDf3c8E-3" value="Request QC" style="whiteSpace=wrap;html=1;aspect=fixed;fillColor=#fff2cc;strokeColor=#d6b656;dashed=1;" vertex="1" parent="1">
          <mxGeometry x="896" y="610" width="60" height="60" as="geometry" />
        </mxCell>
        <mxCell id="kdnbXAXzeRMEIVDf3c8E-5" value="" style="edgeStyle=none;curved=1;rounded=0;orthogonalLoop=1;jettySize=auto;html=1;fontSize=12;startSize=8;endSize=8;" edge="1" parent="1" source="kdnbXAXzeRMEIVDf3c8E-4" target="ICN11t2LMivAURPf7j1P-1">
          <mxGeometry relative="1" as="geometry" />
        </mxCell>
        <mxCell id="kdnbXAXzeRMEIVDf3c8E-4" value="Request YC" style="whiteSpace=wrap;html=1;aspect=fixed;fillColor=#e1d5e7;dashed=1;strokeColor=#9673a6;" vertex="1" parent="1">
          <mxGeometry x="554" y="480.25" width="60" height="60" as="geometry" />
        </mxCell>
        <mxCell id="kdnbXAXzeRMEIVDf3c8E-6" value="&amp;nbsp;QC&amp;nbsp;&lt;div&gt;&amp;nbsp;Pool&amp;nbsp;&lt;/div&gt;&lt;div&gt;&amp;nbsp;IDLE&lt;/div&gt;" style="sketch=0;outlineConnect=0;strokeColor=#d79b00;fillColor=#ffe6cc;dashed=0;verticalLabelPosition=middle;verticalAlign=middle;align=left;html=1;fontSize=12;fontStyle=0;aspect=fixed;shape=mxgraph.aws4.resourceIcon;resIcon=mxgraph.aws4.queue;labelPosition=right;" vertex="1" parent="1">
          <mxGeometry x="1049" y="610" width="60" height="60" as="geometry" />
        </mxCell>
        <mxCell id="kdnbXAXzeRMEIVDf3c8E-7" style="edgeStyle=none;curved=1;rounded=0;orthogonalLoop=1;jettySize=auto;html=1;entryX=0.463;entryY=1.002;entryDx=0;entryDy=0;entryPerimeter=0;fontSize=12;startSize=8;endSize=8;" edge="1" parent="1" source="kdnbXAXzeRMEIVDf3c8E-3" target="kdnbXAXzeRMEIVDf3c8E-3">
          <mxGeometry relative="1" as="geometry" />
        </mxCell>
        <mxCell id="kdnbXAXzeRMEIVDf3c8E-8" value="&lt;span style=&quot;text-align: left;&quot;&gt;&amp;nbsp;YC&lt;/span&gt;&lt;span style=&quot;text-align: left; background-color: initial;&quot;&gt;&amp;nbsp;Pool&amp;nbsp;&lt;/span&gt;&lt;span style=&quot;text-align: left; background-color: initial;&quot;&gt;IDLE&lt;/span&gt;" style="sketch=0;outlineConnect=0;strokeColor=#9673a6;fillColor=#e1d5e7;dashed=0;verticalLabelPosition=top;verticalAlign=bottom;align=center;html=1;fontSize=12;fontStyle=0;aspect=fixed;shape=mxgraph.aws4.resourceIcon;resIcon=mxgraph.aws4.queue;labelPosition=center;" vertex="1" parent="1">
          <mxGeometry x="720.25" y="381" width="60" height="60" as="geometry" />
        </mxCell>
        <mxCell id="kdnbXAXzeRMEIVDf3c8E-9" value="Release YC" style="whiteSpace=wrap;html=1;aspect=fixed;fillColor=#e1d5e7;dashed=1;strokeColor=#9673a6;" vertex="1" parent="1">
          <mxGeometry x="720.25" y="480.25" width="60" height="60" as="geometry" />
        </mxCell>
        <mxCell id="kdnbXAXzeRMEIVDf3c8E-10" value="Release&amp;nbsp;&lt;div&gt;QC&lt;/div&gt;" style="whiteSpace=wrap;html=1;aspect=fixed;fillColor=#fff2cc;strokeColor=#d6b656;dashed=1;" vertex="1" parent="1">
          <mxGeometry x="1049" y="705" width="60" height="60" as="geometry" />
        </mxCell>
      </root>
    </mxGraphModel>
  </diagram>
</mxfile>
